# xmcd
#
# Track frame offsets: 
#        150
#        16529
#        31533
#        45346
#        59153
#        73248
#        87930
#        104796
#        119459
#        134450
#        149103
#        165689
#        184566
#        201273
#        216409
#
# Disc length: 3069 seconds
#
# Revision: 1
# Processed by: cddbd v1.5.2PL0 Copyright (c) Steve Scherf et al.
# Submitted via: ExactAudioCopyFreeDBPlugin 1.0
#
DISCID=e30bfb0f
DTITLE=Jade Valerie - Out Of The Box
DYEAR=2008
DGENRE=Pop
TTITLE0=Tuned Up
TTITLE1=Just Another Day
TTITLE2=Uh Lala
TTITLE3=You Don't Know Me
TTITLE4=Crush
TTITLE5=Show Me
TTITLE6=Razorman
TTITLE7=Like A Bird (Geo's Mix)
TTITLE8=Empty Pages
TTITLE9=Lucky Lady
TTITLE10=We Can Run
TTITLE11=Undone
TTITLE12=Stuck
TTITLE13=The Last
TTITLE14=You Don't Know Me (Duet with Kim Dong Wan)
EXTD=
EXTT0=
EXTT1=
EXTT2=
EXTT3=
EXTT4=
EXTT5=
EXTT6=
EXTT7=
EXTT8=
EXTT9=
EXTT10=
EXTT11=
EXTT12=
EXTT13=
EXTT14=
PLAYORDER=
